<mxfile host="app.diagrams.net" modified="2020-12-01T18:36:17.712Z" agent="5.0 (Windows NT 10.0; Win64; x64) AppleWebKit/537.36 (KHTML, like Gecko) Chrome/86.0.4240.198 Safari/537.36" etag="aMdXR5njrOQLMmJjY45Z" version="13.10.5" type="github">
  <diagram id="R2lEEEUBdFMjLlhIrx00" name="Page-1">
    <mxGraphModel dx="1550" dy="964" grid="1" gridSize="10" guides="1" tooltips="1" connect="1" arrows="1" fold="1" page="1" pageScale="1" pageWidth="850" pageHeight="1100" math="0" shadow="0" extFonts="Permanent Marker^https://fonts.googleapis.com/css?family=Permanent+Marker">
      <root>
        <mxCell id="0" />
        <mxCell id="1" parent="0" />
        <mxCell id="C-vyLk0tnHw3VtMMgP7b-12" value="" style="edgeStyle=entityRelationEdgeStyle;endArrow=ERzeroToMany;startArrow=ERone;endFill=1;startFill=0;" parent="1" target="C-vyLk0tnHw3VtMMgP7b-17" edge="1">
          <mxGeometry width="100" height="100" relative="1" as="geometry">
            <mxPoint x="700" y="165" as="sourcePoint" />
            <mxPoint x="460" y="205" as="targetPoint" />
          </mxGeometry>
        </mxCell>
        <mxCell id="JllJ3GiO7e5eX3SDDkE0-23" value="Students" style="shape=table;startSize=30;container=1;collapsible=1;childLayout=tableLayout;fixedRows=1;rowLines=0;fontStyle=1;align=center;resizeLast=1;" vertex="1" parent="1">
          <mxGeometry x="50" y="100" width="180" height="160" as="geometry" />
        </mxCell>
        <mxCell id="JllJ3GiO7e5eX3SDDkE0-24" value="" style="shape=partialRectangle;collapsible=0;dropTarget=0;pointerEvents=0;fillColor=none;top=0;left=0;bottom=1;right=0;points=[[0,0.5],[1,0.5]];portConstraint=eastwest;" vertex="1" parent="JllJ3GiO7e5eX3SDDkE0-23">
          <mxGeometry y="30" width="180" height="30" as="geometry" />
        </mxCell>
        <mxCell id="JllJ3GiO7e5eX3SDDkE0-25" value="PK" style="shape=partialRectangle;connectable=0;fillColor=none;top=0;left=0;bottom=0;right=0;fontStyle=1;overflow=hidden;" vertex="1" parent="JllJ3GiO7e5eX3SDDkE0-24">
          <mxGeometry width="50" height="30" as="geometry" />
        </mxCell>
        <mxCell id="JllJ3GiO7e5eX3SDDkE0-26" value="student_id" style="shape=partialRectangle;connectable=0;fillColor=none;top=0;left=0;bottom=0;right=0;align=left;spacingLeft=6;fontStyle=5;overflow=hidden;" vertex="1" parent="JllJ3GiO7e5eX3SDDkE0-24">
          <mxGeometry x="50" width="130" height="30" as="geometry" />
        </mxCell>
        <mxCell id="JllJ3GiO7e5eX3SDDkE0-27" value="" style="shape=partialRectangle;collapsible=0;dropTarget=0;pointerEvents=0;fillColor=none;top=0;left=0;bottom=0;right=0;points=[[0,0.5],[1,0.5]];portConstraint=eastwest;" vertex="1" parent="JllJ3GiO7e5eX3SDDkE0-23">
          <mxGeometry y="60" width="180" height="30" as="geometry" />
        </mxCell>
        <mxCell id="JllJ3GiO7e5eX3SDDkE0-28" value="NN" style="shape=partialRectangle;connectable=0;fillColor=none;top=0;left=0;bottom=0;right=0;editable=1;overflow=hidden;" vertex="1" parent="JllJ3GiO7e5eX3SDDkE0-27">
          <mxGeometry width="50" height="30" as="geometry" />
        </mxCell>
        <mxCell id="JllJ3GiO7e5eX3SDDkE0-29" value="first_name" style="shape=partialRectangle;connectable=0;fillColor=none;top=0;left=0;bottom=0;right=0;align=left;spacingLeft=6;overflow=hidden;" vertex="1" parent="JllJ3GiO7e5eX3SDDkE0-27">
          <mxGeometry x="50" width="130" height="30" as="geometry" />
        </mxCell>
        <mxCell id="JllJ3GiO7e5eX3SDDkE0-30" value="" style="shape=partialRectangle;collapsible=0;dropTarget=0;pointerEvents=0;fillColor=none;top=0;left=0;bottom=0;right=0;points=[[0,0.5],[1,0.5]];portConstraint=eastwest;" vertex="1" parent="JllJ3GiO7e5eX3SDDkE0-23">
          <mxGeometry y="90" width="180" height="30" as="geometry" />
        </mxCell>
        <mxCell id="JllJ3GiO7e5eX3SDDkE0-31" value="NN" style="shape=partialRectangle;connectable=0;fillColor=none;top=0;left=0;bottom=0;right=0;editable=1;overflow=hidden;" vertex="1" parent="JllJ3GiO7e5eX3SDDkE0-30">
          <mxGeometry width="50" height="30" as="geometry" />
        </mxCell>
        <mxCell id="JllJ3GiO7e5eX3SDDkE0-32" value="last_name" style="shape=partialRectangle;connectable=0;fillColor=none;top=0;left=0;bottom=0;right=0;align=left;spacingLeft=6;overflow=hidden;" vertex="1" parent="JllJ3GiO7e5eX3SDDkE0-30">
          <mxGeometry x="50" width="130" height="30" as="geometry" />
        </mxCell>
        <mxCell id="JllJ3GiO7e5eX3SDDkE0-33" value="" style="shape=partialRectangle;collapsible=0;dropTarget=0;pointerEvents=0;fillColor=none;top=0;left=0;bottom=0;right=0;points=[[0,0.5],[1,0.5]];portConstraint=eastwest;" vertex="1" parent="JllJ3GiO7e5eX3SDDkE0-23">
          <mxGeometry y="120" width="180" height="30" as="geometry" />
        </mxCell>
        <mxCell id="JllJ3GiO7e5eX3SDDkE0-34" value="UN, NN" style="shape=partialRectangle;connectable=0;fillColor=none;top=0;left=0;bottom=0;right=0;editable=1;overflow=hidden;" vertex="1" parent="JllJ3GiO7e5eX3SDDkE0-33">
          <mxGeometry width="50" height="30" as="geometry" />
        </mxCell>
        <mxCell id="JllJ3GiO7e5eX3SDDkE0-35" value="student_card_num" style="shape=partialRectangle;connectable=0;fillColor=none;top=0;left=0;bottom=0;right=0;align=left;spacingLeft=6;overflow=hidden;" vertex="1" parent="JllJ3GiO7e5eX3SDDkE0-33">
          <mxGeometry x="50" width="130" height="30" as="geometry" />
        </mxCell>
        <mxCell id="JllJ3GiO7e5eX3SDDkE0-49" value="computer_table" style="shape=table;startSize=30;container=1;collapsible=1;childLayout=tableLayout;fixedRows=1;rowLines=0;fontStyle=1;align=center;resizeLast=1;" vertex="1" parent="1">
          <mxGeometry x="580" y="110" width="230" height="120" as="geometry" />
        </mxCell>
        <mxCell id="JllJ3GiO7e5eX3SDDkE0-50" value="" style="shape=partialRectangle;collapsible=0;dropTarget=0;pointerEvents=0;fillColor=none;top=0;left=0;bottom=1;right=0;points=[[0,0.5],[1,0.5]];portConstraint=eastwest;" vertex="1" parent="JllJ3GiO7e5eX3SDDkE0-49">
          <mxGeometry y="30" width="230" height="30" as="geometry" />
        </mxCell>
        <mxCell id="JllJ3GiO7e5eX3SDDkE0-51" value="PK" style="shape=partialRectangle;connectable=0;fillColor=none;top=0;left=0;bottom=0;right=0;fontStyle=1;overflow=hidden;" vertex="1" parent="JllJ3GiO7e5eX3SDDkE0-50">
          <mxGeometry width="50" height="30" as="geometry" />
        </mxCell>
        <mxCell id="JllJ3GiO7e5eX3SDDkE0-52" value="computer_table_id" style="shape=partialRectangle;connectable=0;fillColor=none;top=0;left=0;bottom=0;right=0;align=left;spacingLeft=6;fontStyle=5;overflow=hidden;" vertex="1" parent="JllJ3GiO7e5eX3SDDkE0-50">
          <mxGeometry x="50" width="180" height="30" as="geometry" />
        </mxCell>
        <mxCell id="JllJ3GiO7e5eX3SDDkE0-53" value="" style="shape=partialRectangle;collapsible=0;dropTarget=0;pointerEvents=0;fillColor=none;top=0;left=0;bottom=0;right=0;points=[[0,0.5],[1,0.5]];portConstraint=eastwest;" vertex="1" parent="JllJ3GiO7e5eX3SDDkE0-49">
          <mxGeometry y="60" width="230" height="30" as="geometry" />
        </mxCell>
        <mxCell id="JllJ3GiO7e5eX3SDDkE0-54" value="NN" style="shape=partialRectangle;connectable=0;fillColor=none;top=0;left=0;bottom=0;right=0;editable=1;overflow=hidden;" vertex="1" parent="JllJ3GiO7e5eX3SDDkE0-53">
          <mxGeometry width="50" height="30" as="geometry" />
        </mxCell>
        <mxCell id="JllJ3GiO7e5eX3SDDkE0-55" value="computer_table_name" style="shape=partialRectangle;connectable=0;fillColor=none;top=0;left=0;bottom=0;right=0;align=left;spacingLeft=6;overflow=hidden;" vertex="1" parent="JllJ3GiO7e5eX3SDDkE0-53">
          <mxGeometry x="50" width="180" height="30" as="geometry" />
        </mxCell>
        <mxCell id="JllJ3GiO7e5eX3SDDkE0-56" value="" style="shape=partialRectangle;collapsible=0;dropTarget=0;pointerEvents=0;fillColor=none;top=0;left=0;bottom=0;right=0;points=[[0,0.5],[1,0.5]];portConstraint=eastwest;" vertex="1" parent="JllJ3GiO7e5eX3SDDkE0-49">
          <mxGeometry y="90" width="230" height="30" as="geometry" />
        </mxCell>
        <mxCell id="JllJ3GiO7e5eX3SDDkE0-57" value="UN, NN" style="shape=partialRectangle;connectable=0;fillColor=none;top=0;left=0;bottom=0;right=0;editable=1;overflow=hidden;" vertex="1" parent="JllJ3GiO7e5eX3SDDkE0-56">
          <mxGeometry width="50" height="30" as="geometry" />
        </mxCell>
        <mxCell id="JllJ3GiO7e5eX3SDDkE0-58" value="inventory_number" style="shape=partialRectangle;connectable=0;fillColor=none;top=0;left=0;bottom=0;right=0;align=left;spacingLeft=6;overflow=hidden;" vertex="1" parent="JllJ3GiO7e5eX3SDDkE0-56">
          <mxGeometry x="50" width="180" height="30" as="geometry" />
        </mxCell>
        <mxCell id="JllJ3GiO7e5eX3SDDkE0-63" value="" style="edgeStyle=entityRelationEdgeStyle;fontSize=12;html=1;endArrow=ERzeroToMany;startArrow=ERmandOne;exitX=1;exitY=0.5;exitDx=0;exitDy=0;entryX=0;entryY=0.5;entryDx=0;entryDy=0;" edge="1" parent="1" source="JllJ3GiO7e5eX3SDDkE0-24" target="JllJ3GiO7e5eX3SDDkE0-74">
          <mxGeometry width="100" height="100" relative="1" as="geometry">
            <mxPoint x="370" y="540" as="sourcePoint" />
            <mxPoint x="330" y="175" as="targetPoint" />
          </mxGeometry>
        </mxCell>
        <mxCell id="JllJ3GiO7e5eX3SDDkE0-64" value="" style="edgeStyle=entityRelationEdgeStyle;fontSize=12;html=1;endArrow=ERzeroToMany;startArrow=ERmandOne;exitX=0;exitY=0.5;exitDx=0;exitDy=0;entryX=1;entryY=0.5;entryDx=0;entryDy=0;" edge="1" parent="1" source="JllJ3GiO7e5eX3SDDkE0-50" target="JllJ3GiO7e5eX3SDDkE0-77">
          <mxGeometry width="100" height="100" relative="1" as="geometry">
            <mxPoint x="240" y="155" as="sourcePoint" />
            <mxPoint x="510" y="205" as="targetPoint" />
          </mxGeometry>
        </mxCell>
        <mxCell id="JllJ3GiO7e5eX3SDDkE0-67" value="student_lab_work" style="shape=table;startSize=30;container=1;collapsible=1;childLayout=tableLayout;fixedRows=1;rowLines=0;fontStyle=1;align=center;resizeLast=1;verticalAlign=middle;" vertex="1" parent="1">
          <mxGeometry x="320" y="90" width="200" height="160" as="geometry">
            <mxRectangle x="330" y="410" width="130" height="30" as="alternateBounds" />
          </mxGeometry>
        </mxCell>
        <mxCell id="JllJ3GiO7e5eX3SDDkE0-71" value="" style="shape=partialRectangle;collapsible=0;dropTarget=0;pointerEvents=0;fillColor=none;top=0;left=0;bottom=1;right=0;points=[[0,0.5],[1,0.5]];portConstraint=eastwest;" vertex="1" parent="JllJ3GiO7e5eX3SDDkE0-67">
          <mxGeometry y="30" width="200" height="30" as="geometry" />
        </mxCell>
        <mxCell id="JllJ3GiO7e5eX3SDDkE0-72" value="PK" style="shape=partialRectangle;connectable=0;fillColor=none;top=0;left=0;bottom=0;right=0;fontStyle=1;overflow=hidden;" vertex="1" parent="JllJ3GiO7e5eX3SDDkE0-71">
          <mxGeometry width="60" height="30" as="geometry" />
        </mxCell>
        <mxCell id="JllJ3GiO7e5eX3SDDkE0-73" value="student_lab_work_id" style="shape=partialRectangle;connectable=0;fillColor=none;top=0;left=0;bottom=0;right=0;align=left;spacingLeft=6;fontStyle=5;overflow=hidden;" vertex="1" parent="JllJ3GiO7e5eX3SDDkE0-71">
          <mxGeometry x="60" width="140" height="30" as="geometry" />
        </mxCell>
        <mxCell id="JllJ3GiO7e5eX3SDDkE0-74" value="" style="shape=partialRectangle;collapsible=0;dropTarget=0;pointerEvents=0;fillColor=none;top=0;left=0;bottom=0;right=0;points=[[0,0.5],[1,0.5]];portConstraint=eastwest;" vertex="1" parent="JllJ3GiO7e5eX3SDDkE0-67">
          <mxGeometry y="60" width="200" height="30" as="geometry" />
        </mxCell>
        <mxCell id="JllJ3GiO7e5eX3SDDkE0-75" value="FK, NN" style="shape=partialRectangle;connectable=0;fillColor=none;top=0;left=0;bottom=0;right=0;editable=1;overflow=hidden;" vertex="1" parent="JllJ3GiO7e5eX3SDDkE0-74">
          <mxGeometry width="60" height="30" as="geometry" />
        </mxCell>
        <mxCell id="JllJ3GiO7e5eX3SDDkE0-76" value="student_id" style="shape=partialRectangle;connectable=0;fillColor=none;top=0;left=0;bottom=0;right=0;align=left;spacingLeft=6;overflow=hidden;" vertex="1" parent="JllJ3GiO7e5eX3SDDkE0-74">
          <mxGeometry x="60" width="140" height="30" as="geometry" />
        </mxCell>
        <mxCell id="JllJ3GiO7e5eX3SDDkE0-77" value="" style="shape=partialRectangle;collapsible=0;dropTarget=0;pointerEvents=0;fillColor=none;top=0;left=0;bottom=0;right=0;points=[[0,0.5],[1,0.5]];portConstraint=eastwest;" vertex="1" parent="JllJ3GiO7e5eX3SDDkE0-67">
          <mxGeometry y="90" width="200" height="30" as="geometry" />
        </mxCell>
        <mxCell id="JllJ3GiO7e5eX3SDDkE0-78" value="FK, NN" style="shape=partialRectangle;connectable=0;fillColor=none;top=0;left=0;bottom=0;right=0;editable=1;overflow=hidden;" vertex="1" parent="JllJ3GiO7e5eX3SDDkE0-77">
          <mxGeometry width="60" height="30" as="geometry" />
        </mxCell>
        <mxCell id="JllJ3GiO7e5eX3SDDkE0-79" value="cmputer_table_id" style="shape=partialRectangle;connectable=0;fillColor=none;top=0;left=0;bottom=0;right=0;align=left;spacingLeft=6;overflow=hidden;" vertex="1" parent="JllJ3GiO7e5eX3SDDkE0-77">
          <mxGeometry x="60" width="140" height="30" as="geometry" />
        </mxCell>
        <mxCell id="JllJ3GiO7e5eX3SDDkE0-92" value="" style="shape=partialRectangle;collapsible=0;dropTarget=0;pointerEvents=0;fillColor=none;top=0;left=0;bottom=0;right=0;points=[[0,0.5],[1,0.5]];portConstraint=eastwest;" vertex="1" parent="JllJ3GiO7e5eX3SDDkE0-67">
          <mxGeometry y="120" width="200" height="30" as="geometry" />
        </mxCell>
        <mxCell id="JllJ3GiO7e5eX3SDDkE0-93" value="NN" style="shape=partialRectangle;connectable=0;fillColor=none;top=0;left=0;bottom=0;right=0;fontStyle=0;overflow=hidden;" vertex="1" parent="JllJ3GiO7e5eX3SDDkE0-92">
          <mxGeometry width="60" height="30" as="geometry" />
        </mxCell>
        <mxCell id="JllJ3GiO7e5eX3SDDkE0-94" value="student_lab_work_date" style="shape=partialRectangle;connectable=0;fillColor=none;top=0;left=0;bottom=0;right=0;align=left;spacingLeft=6;fontStyle=0;overflow=hidden;" vertex="1" parent="JllJ3GiO7e5eX3SDDkE0-92">
          <mxGeometry x="60" width="140" height="30" as="geometry" />
        </mxCell>
      </root>
    </mxGraphModel>
  </diagram>
</mxfile>
